<svg xmlns="http://www.w3.org/2000/svg" width="1024" height="1024"><path d="M0 0v1024h1024V0H0z" style="fill:#f7f7f8;stroke:none"/><path d="M375 489c5.809-4.092 10.336-9.684 16-14-5.044-11.32-14.741-20.61-20.216-32-14.985-31.172-20.759-69.257-11.9-103 3.564-13.576 8.56-26.791 15.543-39 3.809-6.658 11.629-14.453 12.573-22 4.363-2.052 6.846-5.52 10.09-9 4.957-5.32 10.186-10.493 15.91-14.985 17.759-13.937 37.401-22.938 59-29.143C554.921 202.049 649.191 261.459 664.537 346c6.841 37.689-.312 77.292-20.348 110-4.519 7.376-9.566 14.562-15.36 21-3.237 3.597-7.738 6.802-10.206 11-3.248 5.523 6.291 14.412 11.377 15.655 5.266 1.287 12.504-9.16 15.385-12.655 12.127-14.708 22.368-31.237 29.411-49 25.462-64.22 12.365-143.381-38.835-191.83-58.753-55.596-152.308-66.697-220.961-22.478-46.941 30.235-78.505 83.243-80.961 139.308-1.222 27.922 4.846 56.545 16.101 82 6.326 14.308 14.602 28.146 24.86 40z" style="fill:#2fa67e;stroke:none"/><path d="m387 279 1 1-1-1z" style="fill:#0e344d;stroke:none"/><path d="M451 306.483c-21.138 4.105-14.786 35.838 6 32.187 21.391-3.758 14.667-36.2-6-32.187m113 .051c-21.121 5.03-13.018 37.415 8 31.908 20.286-5.314 12.315-36.747-8-31.908M532 415c-14.314 6.345-30.23 9.435-45 14.692-34.984 12.451-69.361 30.128-93.385 59.308-8.473 10.291-15.743 21.623-20.751 34-1.521 3.758-4.448 10.733-1.835 14.566 1.725 2.532 5.264 2.392 7.971 2.43 6.664.093 13.335.004 20 .004 28.588 0 57.529 1.247 86-1-.403-8.825-4.295-17.144-5-26 6.983 0 14.023.263 21-.039 2.802-.122 6.183-1.259 8.816.106 2.673 1.386 4.333 4.611 6.079 6.933 4.406 5.859 11.122 16.689 18.144 19.397 7.072 2.726 18.424.603 25.961.603h91c4.7 0 10.261 1.241 12-4-14.148-7.532-27.415-17.07-41-25.576-14.474-9.062-29.916-17.838-43-28.863-9.739-8.206-20.948-18.78-15.907-32.561 5.741-15.693 23.394-25.288 36.907-33.4 4.034-2.421 15.61-7.446 14.824-13.373-.462-3.486-6.175-3.941-8.824-4.137-8.998-.664-18.159.268-27 1.91 13.417-8.242 29.747-18.037 37.992-32 5.567-9.428-2.634-19.395-12.992-16.566-4.11 1.122-7.09 4.672-10 7.567-5.115 5.088-10.079 10.113-16 14.278-19.377 13.633-46.003 23.266-70 21.632-23.57-1.605-47.32-9.474-66-24.122-8.113-6.362-18.917-23.712-30.995-19.186-7.075 2.652-7.938 10.616-4.522 16.397 5.745 9.721 16.326 17.69 25.517 23.971 30.157 20.61 64.203 27.553 100 23.029z" style="fill:#2fa67e;stroke:none"/><path d="M529 437c-12.681 3.853-31.453 5.259-38 19 5.783 0 15.578 1.884 20.715-1.028 3.499-1.983 6.243-5.914 9.285-8.547 2.82-2.441 8.095-5.451 8-9.425m-25 59c-1.506-8.11-1.005-15.829-1-24h-16c-2.262.005-5.365-.431-7.297 1.028-1.529 1.154-2.017 3.224-2.463 4.977-1.115 4.386-4.452 14.768.194 17.967 2.071 1.427 5.193 1.023 7.566 1.028 6.234.013 12.994.775 19-1z" style="fill:#f7f7f8;stroke:none"/><path d="M616.333 490.667c-.055.055-.111 1.111.334.666.055-.055.111-1.111-.334-.666z" style="fill:#0e344d;stroke:none"/><path d="m130 571 1 1-1-1z" style="fill:#2fa67e;stroke:none"/><path d="M107 651c11.734 7.739 26.871 12.895 41 9.073 15.889-4.299 25.579-23.143 16.517-38.058-6.299-10.368-19.485-11.67-29.517-16.508-4.417-2.13-9.838-5.941-9.467-11.507.694-10.4 14.256-11.12 21.467-8.123 2.933 1.218 6.615 4.067 9.96 3.307 4.233-.962 6.67-6.569 8.04-10.184-11.255-5.758-23.197-10.21-36-7.1-15.914 3.866-26.485 22.086-16.867 37.096 7.082 11.051 20.234 11.183 30.866 16.562 4.631 2.343 8.685 6.936 7.591 12.442-2.297 11.563-16.291 11.297-24.59 7.191-3.128-1.548-7.225-5.209-10.96-4.374-4.231.946-6.673 6.579-8.04 10.183z" style="fill:#0e344d;stroke:none"/><path d="M145.667 571.333c-.445.445.611.389.666.334.445-.445-.611-.389-.666-.334M291 571l1 1-1-1z" style="fill:#2fa67e;stroke:none"/><path d="M292.001 571.588c-11.185 2.882-7.05 19.427 3.998 16.799 11.251-2.675 7.293-19.708-3.998-16.799z" style="fill:#0e344d;stroke:none"/><path d="m489 571 1 1-1-1z" style="fill:#2fa67e;stroke:none"/><path d="M490.015 571.573c-12.004 2.392-7.29 19.053 3.981 16.854 11.984-2.338 7.692-19.179-3.981-16.854z" style="fill:#0e344d;stroke:none"/><path d="m494 571 1 1-1-1m-368 1 1 1-1-1m24 0 1 1-1-1m149 0 1 1-1-1z" style="fill:#2fa67e;stroke:none"/><path d="M315 572v88h16v-88h-16z" style="fill:#0e344d;stroke:none"/><path d="m486 572 1 1-1-1m11 0 1 1-1-1z" style="fill:#2fa67e;stroke:none"/><path d="M609 572v88h17v-34c3.159 0 7.03-.537 9.907 1.028 3.362 1.829 5.377 5.9 7.426 8.972 4.538 6.802 9.029 17.121 15.276 22.397C662.649 661.809 672.001 660 677 660c-4.314-13.515-16.914-24.136-23-37 18.32-7.68 24.089-35.671 5-46.633-13.709-7.873-34.814-4.367-50-4.367z" style="fill:#0e344d;stroke:none"/><path d="m644 572 1 1-1-1m-357 1 1 1-1-1m13 0 1 1-1-1m351 0 1 1-1-1m-496 1 1 1-1-1m131 0 1 1-1-1m198 0 1 1-1-1m-327 1 1 1-1-1m343 0 1 1-1-1m157 0 1 1-1-1m-539 1 1 1-1-1m541 0 1 1-1-1m-496 2 1 1-1-1m121 0v4c.71-1.76.71-2.24 0-4m19 0v4c.71-1.76.71-2.24 0-4m359 0 1 1-1-1m1 1 1 1-1-1m1 1 1 1-1-1m-182 1 1 1-1-1m19 0 1 1-1-1z" style="fill:#2fa67e;stroke:none"/><path d="m824 581-2 18h-9v11h8v26c.003 6.493.222 13.605 4.558 18.895 4.904 5.984 13.246 6.685 20.442 6.001 2.822-.268 7.427-1.167 8.643-4.171 1.249-3.083-1.656-7.809-2.643-10.725-2.778 1.062-5.928 2.739-8.982 1.921-4.054-1.086-5.594-5.137-5.924-8.921-.832-9.532-.094-19.431-.094-29h16v-11h-16v-18h-13z" style="fill:#0e344d;stroke:none"/><path d="m112 582 1 1-1-1m51 0 1 1-1-1m-52 2 1 1-1-1m23 0 1 1-1-1m8.667.333c-.445.445.611.389.666.334.445-.445-.611-.389-.666-.334M500 584l1 1-1-1m167 0 1 1-1-1m-521 1 1 1-1-1m15 0 1 1-1-1m125 0 1 1-1-1m15 0 1 1-1-1m183 0 1 1-1-1z" style="fill:#2fa67e;stroke:none"/><path d="M626 585v28c6.545 0 14.989 1.405 20.985-1.688 8.178-4.22 9.879-17.932 1.91-23.307C642.492 583.688 633.3 585 626 585z" style="fill:#f7f7f8;stroke:none"/><path d="M642.667 585.333c-.445.445.611.389.666.334.445-.445-.611-.389-.666-.334M110 586l1 1-1-1m19 0 1 1-1-1m158 0 1 1-1-1m13 0 1 1-1-1m185 0 1 1-1-1m161 0 1 1-1-1m22 0 1 1-1-1m155 0 1 1-1-1m-175 1 1 1-1-1m-357 1 1 1-1-1m5 0 1 1-1-1m193 0 1 1-1-1m5 0 1 1-1-1m-368 1 1 1-1-1m543 0 1 1-1-1m-17 2 1 1-1-1m-527 1 1 1-1-1m697 0 1 1-1-1m-714 1v7c1.059-2.534 1.059-4.466 0-7m545 0 1 1-1-1m17 1v3c.696-1.554.696-1.446 0-3m-545 2 1 1-1-1m80 1 1 1-1-1z" style="fill:#2fa67e;stroke:none"/><path d="M192 604v-5h-15v61h16v-30c0-4.43-.936-10.089 1.603-13.985 5.151-7.902 16.687-7.892 20.744.989C217.588 621.908 217 627.762 217 633v27h16v-28c0-4.432-.751-9.692.434-13.999 1.635-5.947 8.631-10.014 14.562-7.954 5.56 1.931 7.516 7.56 7.914 12.953.9 12.206.09 24.759.09 37h16v-13c0-15.638 4.807-43.486-15-49.211-2.599-.751-5.313-.827-8-.774-3.433.069-6.82.592-10 1.94-4.289 1.819-7.674 4.872-11 8.045-7.227-15.453-24.787-9.75-36-3z" style="fill:#0e344d;stroke:none"/><path d="M216.667 597.333c-.445.445.611.389.666.334.445-.445-.611-.389-.666-.334M243 597l1 1-1-1m13 0 1 1-1-1m107.667.333c-.445.445.611.389.666.334.445-.445-.611-.389-.666-.334z" style="fill:#2fa67e;stroke:none"/><path d="M356 633h42c0-10.733-.407-22.026-9.043-29.787-10.155-9.126-29-8.106-38.864 1-5.732 5.292-8.825 13.182-9.804 20.787-2.75 21.376 12.984 36.468 33.711 35.985 6.039-.14 12.727-1.848 17.981-4.89 2.302-1.333 4.81-3.136 3.933-6.134-3.245-11.08-14.06-1.452-20.914-1.069-10.506.587-16.336-6.708-19-15.892z" style="fill:#0e344d;stroke:none"/><path d="M376.667 597.333c-.445.445.611.389.666.334.445-.445-.611-.389-.666-.334M422 597l1 1-1-1z" style="fill:#2fa67e;stroke:none"/><path d="M403 654c11.119 5.688 23.583 9.405 36 5.556 10.739-3.328 18.094-15.986 11.91-26.541-4.479-7.645-14.312-8.707-21.91-11.375-2.927-1.027-7.515-2.866-7.515-6.64 0-8.298 13.035-5.745 17.515-4.309 1.531.49 3.242 1.309 4.896 1.097 3.769-.484 5.714-5.816 7.104-8.788-9.951-5.244-22.08-8.013-33-4.239-10.897 3.765-16.824 17.049-10.005 27.146 4.712 6.979 14.732 7.929 22.005 10.804 2.889 1.141 7.525 3.389 6.503 7.274-1.651 6.277-9.732 6.197-14.503 4.655-7.426-2.398-12.503-7.266-17.443 1.32-.758 1.317-1.1 2.605-1.557 4.04z" style="fill:#0e344d;stroke:none"/><path d="m435 597 1 1-1-1m106 0 1 1-1-1z" style="fill:#2fa67e;stroke:none"/><path d="M529 605v-6h-15v61h16c-2.196-9.222-1-19.558-1-29 0-4.02-.826-9.171.603-12.996 3.111-8.322 15.271-10.646 20.978-3.895 3.8 4.494 3.419 10.384 3.419 15.891v30h16v-29c0-6.703.507-13.502-1.44-20-3.679-12.278-16.822-16.917-28.56-12.892-4.201 1.441-7.66 4.053-11 6.892z" style="fill:#0e344d;stroke:none"/><path d="m555 597 1 1-1-1m147 0 1 1-1-1z" style="fill:#2fa67e;stroke:none"/><path d="M703 597.439c-24.295 3.826-34.845 34.862-18.671 53.521 7.472 8.621 19.716 11.319 30.671 9.74 22.933-3.306 34.95-31.663 21.362-50.7-7.524-10.541-20.891-14.525-33.362-12.561z" style="fill:#0e344d;stroke:none"/><path d="M715.667 597.333c-.445.445.611.389.666.334.445-.445-.611-.389-.666-.334m167 0c-.444.444.611.389.666.334.445-.445-.611-.389-.666-.334z" style="fill:#2fa67e;stroke:none"/><path d="M916 653c-1.434-3.729-3.68-6.758-6-10-11.68 3.696-24.483 11.654-32.911-2.999-1.271-2.21-1.716-4.526-2.089-7.001h41c0-6.448.314-12.791-1.75-19-5.607-16.865-28.18-22.042-42.25-12.2-18.112 12.67-17.916 44.562 2 55.4 5.92 3.222 12.359 3.948 19 3.785 8.582-.21 15.659-3.959 23-7.985z" style="fill:#0e344d;stroke:none"/><path d="m895 597 1 1-1-1m-718 1c4.471 1.876 10.183 1 15 1-4.471-1.876-10.183-1-15-1m24 0 1 1-1-1m58 0 1 1-1-1m27 0c4.724 1.982 10.91 1 16 1-4.724-1.982-10.91-1-16-1m73 0 1 1-1-1m59 0 1 1-1-1m21 0 1 1-1-1m45 0c4.724 1.982 10.91 1 16 1-4.724-1.982-10.91-1-16-1m30 0c4.471 1.876 10.183 1 15 1-4.471-1.876-10.183-1-15-1m24 0 1 1-1-1m20 0 1 1-1-1m162 0 1 1-1-1m29 39c1.661-3.959 1-8.74 1-13v-25h16c-3.33-1.397-13.389-2.658-15.972.603C748.088 602.052 749 607.09 749 610v27m40-39c4.724 1.982 10.91 1 16 1-4.724-1.982-10.91-1-16-1m24 0c2.89 1.213 5.874.998 9 1-2.89-1.213-5.874-.998-9-1m24 0c4.724 1.982 10.91 1 16 1-4.724-1.982-10.91-1-16-1m41 0 1 1-1-1m21 0 1 1-1-1m-773 1 1 1-1-1m73 0 1 1-1-1m62 0 1 1-1-1z" style="fill:#2fa67e;stroke:none"/><path d="M286 599v61h16v-61h-16z" style="fill:#0e344d;stroke:none"/><path d="m357 599 1 1-1-1m26 0 1 1-1-1m59 0 1 1-1-1z" style="fill:#2fa67e;stroke:none"/><path d="M484 599v61h16v-61h-16z" style="fill:#0e344d;stroke:none"/><path d="M513 599v61c1.875-4.469 1-10.191 1-15v-30c0-5.08.981-11.28-1-16m23 0 1 1-1-1m24 0 1 1-1-1m163 0 1 1-1-1z" style="fill:#2fa67e;stroke:none"/><path d="M750 599v29c0 5.913-.634 12.237.927 18 3.451 12.737 15.984 17.646 28.073 13.776 4.242-1.358 7.653-3.93 11-6.776.494 8.91 7.96 7 15 7v-38c0-7.591-.767-15.578 1-23h-17v31c0 4.022.895 9.358-1.603 12.815-5.182 7.169-17.164 6.801-20.504-1.819-1.637-4.226-.893-9.552-.893-13.996v-28h-16z" style="fill:#0e344d;stroke:none"/><path d="M853 599v11c1.431-3.41 1.431-7.59 0-11m48 0 1 1-1-1m-704 1 1 1-1-1m26 0 1 1-1-1m132 0 1 1-1-1m30 0 1 1-1-1m60 0 1 1-1-1m280 0 1 1-1-1m80 0v60c1.875-4.469 1-10.191 1-15v-29c0-5.08.981-11.28-1-16m98 0 1 1-1-1m-679 1 1 1-1-1m10 0 1 1-1-1m30 0 1 1-1-1m89 0 1 1-1-1m59 0 1 1-1-1m121 0 1 1-1-1m339 0 1 1-1-1m-743 1 1 1-1-1m96 0 1 1-1-1m40 0 1 1-1-1m424 0 1 1-1-1m217 0 1 1-1-1m-797 1 1 1-1-1m157 0 1 1-1-1m123 0 1 1-1-1m264 0 1 1-1-1m17 0 1 1-1-1m199 0 1 1-1-1m38 0 1 1-1-1m-775 1 1 1-1-1m258 0 1 1-1-1m139 0 1 1-1-1m202 0 1 1-1-1m137 0 1 1-1-1m-734 1 1 1-1-1m274 0 1 1-1-1m158 0 1 1-1-1m166 0 1 1-1-1m135 0 1 1-1-1m42 0 1 1-1-1m-641 1 1 1-1-1m384 0 1 1-1-1m81 0 1 1-1-1m133 0 1 1-1-1m-727 1 1 1-1-1m309 0 1 1-1-1m119 0 1 1-1-1m102 0 1 1-1-1m65 0 1 1-1-1m-592 1 1 1-1-1m127 0 1 1-1-1m77 0 1 1-1-1m20 0 1 1-1-1z" style="fill:#2fa67e;stroke:none"/><path d="M357 622h26c-.481-10.351-11.223-18.796-20.786-11.297-3.453 2.708-4.597 7.178-5.214 11.297z" style="fill:#f7f7f8;stroke:none"/><path d="m374 608 1 1-1-1m19 0 1 1-1-1m13 0 1 1-1-1m478 0 1 1-1-1z" style="fill:#2fa67e;stroke:none"/><path d="M876 622h26c-1.068-4.082-1.744-8.52-5.214-11.347-9.341-7.613-20.262 1.261-20.786 11.347z" style="fill:#f7f7f8;stroke:none"/><path d="m112 609 1 1-1-1m33 0 1 1-1-1m97 0c1.769.779 3.036.912 5 1-1.769-.779-3.036-.912-5-1m193 0 1 1-1-1m247 0 1 1-1-1m22 0 1 1-1-1z" style="fill:#2fa67e;stroke:none"/><path d="M705 609.558c-19.146 5.024-13.842 45.954 9 38.789 18.771-5.888 12.955-44.55-9-38.789z" style="fill:#f7f7f8;stroke:none"/><path d="m714 609 1 1-1-1m168 0 1 1-1-1m13 0 1 1-1-1m-695 1 1 1-1-1m50 0 1 1-1-1m128 0 1 1-1-1m16 0 1 1-1-1m152 0 1 1-1-1m22 0 1 1-1-1m80 0 1 1-1-1m68 0 1 1-1-1m147 0 1 1-1-1m-713 1 1 1-1-1m48 0 1 1-1-1m39 0 1 1-1-1m33 0 1 1-1-1m74 0 1 1-1-1m35 0 1 1-1-1m62 0 1 1-1-1m259 0 1 1-1-1m-320 1 1 1-1-1m15 0 1 1-1-1m10 0 1 1-1-1m38 0 1 1-1-1m2 0 1 1-1-1m88 0 1 1-1-1m111 0 1 1-1-1m75 0 1 1-1-1m143 0 1 1-1-1m-609 1 1 1-1-1m90 0 1 1-1-1m16 0 1 1-1-1m210.333.667c-.055.055-.111 1.111.334.666.055-.055.111-1.111-.334-.666M626 613c4.471 1.876 10.183 1 15 1-4.471-1.876-10.183-1-15-1m40 0 1 1-1-1m54 0 1 1-1-1m18 0 1 1-1-1m161 0 1 1-1-1m-743 1 1 1-1-1m58 0 1 1-1-1m20 0 1 1-1-1m186.333.667c-.055.055-.111 1.111.334.666.055-.055.111-1.111-.334-.666M679 614l1 1-1-1m182 0 1 1-1-1m16 0 1 1-1-1m37 0 1 1-1-1m-796 1 1 1-1-1m153.333.667c-.055.055-.111 1.111.334.666.055-.055.111-1.111-.334-.666M358 615l1 1-1-1m38 0 1 1-1-1m343 0 1 1-1-1m161 0 1 1-1-1m-741 1 1 1-1-1m34 0v44c1.552-3.699 1-8.017 1-12v-20c0-3.983.552-8.301-1-12m22 0 1 1-1-1m18 0 1 1-1-1m149 0 1 1-1-1m147 0v43c3.507-8.357 1-21.94 1-31 0-3.983.552-8.301-1-12m149 1 1 1-1-1m182 0 1 1-1-1m-737 1 1 1-1-1m234 0 1 1-1-1m383 0 1 1-1-1m175 0 1 1-1-1m-660 1 1 1-1-1m142 0 1 1-1-1m26 0 1 1-1-1m130 0 1 1-1-1m170 0 1 1-1-1m178.333.667c-.055.055-.111 1.111.334.666.055-.055.111-1.111-.334-.666M128 620l1 1-1-1m35 0 1 1-1-1m53 0v4c.71-1.76.71-2.24 0-4m189 0 1 1-1-1m20 0 1 1-1-1m269 0 1 1-1-1m-563 1 1 1-1-1m297 0 1 1-1-1m229 0 1 1-1-1m20 0 1 1-1-1m182 0 1 1-1-1m16 0 1 1-1-1m-741 1 1 1-1-1m297 0 1 1-1-1m224 0 1 1-1-1m69.333.667c-.055.055-.111 1.111.334.666.055-.055.111-1.111-.334-.666m17 0c-.055.055-.111 1.111.334.666.055-.055.111-1.111-.334-.666M137 623l1 1-1-1m28 0 1 1-1-1m241 0 1 1-1-1m29 0 1 1-1-1m-295 1 1 1-1-1m298 0 1 1-1-1m255 0v8c1.161-2.77 1.161-5.23 0-8m-550 1 1 1-1-1m264 0 1 1-1-1m34 0 1 1-1-1m-296 1 1 1-1-1m298 0 1 1-1-1m212 0 1 1-1-1m-210 1 1 1-1-1m193 1 1 1-1-1m-227 1 1 1-1-1m246 0 1 1-1-1m-489.667 1.667c-.055.055-.111 1.111.334.666.055-.055.111-1.111-.334-.666M640 631l1 1-1-1m-490 1 1 1-1-1m267 0 1 1-1-1m242 0 1 1-1-1m-319 1v3c.696-1.554.696-1.446 0-3m16.333.667c-.055.055-.111 1.111.334.666.055-.055.111-1.111-.334-.666M420 633l1 1-1-1m31 0 1 1-1-1m290 0 1 1-1-1m-318 1 1 1-1-1m219 0 1 1-1-1m82 0 1 1-1-1m-298 1 1 1-1-1m235 0 1 1-1-1m-209 1 1 1-1-1m225 0 1 1-1-1m198 0 1 1-1-1m-708 1v3c.696-1.554.696-1.446 0-3m265 0 1 1-1-1m212 0 1 1-1-1m215 0 1 1-1-1m-502 1 1 1-1-1m77 0 1 1-1-1m229 0 1 1-1-1m77 0 1 1-1-1m-399 1 1 1-1-1m535 0 1 1-1-1m-759 1 1 1-1-1m529 0 1 1-1-1m32 0 1 1-1-1m88 0 1 1-1-1m-329 1v3c.696-1.554.696-1.446 0-3m228 0 1 1-1-1m57 0 1 1-1-1m17 0 1 1-1-1m121 0 1 1-1-1m17 0 1 1-1-1m-181 1 1 1-1-1m92 0 1 1-1-1m49 0 1 1-1-1m-715 1 1 1-1-1m26 0 1 1-1-1m18 0 1 1-1-1m223 0 1 1-1-1m259 0 1 1-1-1m119 0 1 1-1-1m20 0 1 1-1-1m-677 1 1 1-1-1m37 0 1 1-1-1m240 0 1 1-1-1m280 0 1 1-1-1m83.333.667c-.055.055-.111 1.111.334.666.055-.055.111-1.111-.334-.666M786 644l1 1-1-1m-640 1 1 1-1-1m216 0 1 1-1-1m45 0 1 1-1-1m273 0 1 1-1-1m141.333.667c-.055.055-.111 1.111.334.666.055-.055.111-1.111-.334-.666M838 645l1 1-1-1m66 0 1 1-1-1m7 0 1 1-1-1m-783 1 1 1-1-1m16 0 1 1-1-1m308 0 1 1-1-1m198 0 1 1-1-1m120 0 1 1-1-1m13 0 1 1-1-1m67 0 1 1-1-1m32 0 1 1-1-1m-774 1 1 1-1-1m23 0 1 1-1-1m10 0 1 1-1-1m240 0 1 1-1-1m13 0 1 1-1-1m24 0 1 1-1-1m251 0 1 1-1-1m32 0 1 1-1-1m15 0 1 1-1-1m20 0 1 1-1-1m36 0 1 1-1-1m9 0 1 1-1-1m59 0 1 1-1-1m8 0 1 1-1-1m4 0 1 1-1-1m11 0 1 1-1-1m21 0 1 1-1-1m16 0 1 1-1-1m-555 1 1 1-1-1m24 0 1 1-1-1m8.667.333c-.445.445.611.389.666.334.445-.445-.611-.389-.666-.334M405 648l1 1-1-1m28 0 1 1-1-1m249 0 1 1-1-1m22 0 1 1-1-1m47 0 1 1-1-1m92 0c1.248.685 1.548.749 3 1-1.248-.685-1.549-.749-3-1m44 0 1 1-1-1m8.667.333c-.445.445.611.389.666.334.445-.445-.611-.389-.666-.334M424 649c1.248.685 1.548.749 3 1-1.248-.685-1.548-.749-3-1m5.667.333c-.445.445.611.389.666.334.445-.445-.611-.389-.666-.334M652 649l1 1-1-1m170 0 1 1-1-1m92 0 1 1-1-1m-243 1 1 1-1-1m81 0 1 1-1-1m101 0 1 1-1-1m12 0 1 1-1-1m-468 1 1 1-1-1m6 0 1 1-1-1m330 0 1 1-1-1m133 0 1 1-1-1m-757 1 1 1-1-1m340 0 1 1-1-1m205 0 1 1-1-1m78 0 1 1-1-1m21 0 1 1-1-1m114 0 1 1-1-1m-43 1 1 1-1-1m44 0 1 1-1-1m46 0 1 1-1-1m-520 1 1 1-1-1m10 0 1 1-1-1m270 0 1 1-1-1m-560 1 1 1-1-1m238 0 1 1-1-1m94 0 1 1-1-1m210 0 1 1-1-1m33 0 1 1-1-1m166 0 1 1-1-1m56 0 1 1-1-1m-795 1 1 1-1-1m40 0 1 1-1-1m235 0 1 1-1-1m54 0 1 1-1-1m340 0 1 1-1-1m87 0 1 1-1-1m-718 1 1 1-1-1m235 0 1 1-1-1m21 0 1 1-1-1m282 0 1 1-1-1m33 0 1 1-1-1m149 0 1 1-1-1m33 0 1 1-1-1m-786 1 1 1-1-1m31 0 1 1-1-1m234 0 1 1-1-1m308 0 1 1-1-1m29 0 1 1-1-1m36 0 1 1-1-1m31.333.667c-.055.055-.111 1.111.334.666.055-.055.111-1.111-.334-.666M829 658l1 1-1-1m47 0 1 1-1-1m29 0 1 1-1-1m-781 1 1 1-1-1m236 0 1 1-1-1m23 0 1 1-1-1m56 0 1 1-1-1m238 0 1 1-1-1m20 0 1 1-1-1m23 0 1 1-1-1m41 0 1 1-1-1m70 0 1 1-1-1m20 0 1 1-1-1m51 0 1 1-1-1m-773.333 1.333c-.445.445.611.389.666.334.445-.445-.611-.389-.666-.334M146 660l1 1-1-1m218.667.333c-.445.445.611.389.666.334.445-.445-.611-.389-.666-.334M379 660l1 1-1-1m40.667.333c-.445.445.611.389.666.334.445-.445-.611-.389-.666-.334m16 0c-.445.445.611.389.666.334.445-.445-.611-.389-.666-.334M701 660l1 1-1-1m15.667.333c-.445.445.611.389.666.334.445-.445-.611-.389-.666-.334M764 660l1 1-1-1m12 0 1 1-1-1m58 0 1 1-1-1m48.667.333c-.444.444.611.389.666.334.445-.445-.611-.389-.666-.334M898 660l1 1-1-1m-548 65c-3.611 12.457 19.649 13.533 22.566 2.985 1.935-7.002-2.814-10.981-8.566-13.561-2.456-1.101-7.617-2.73-7.079-6.319.814-5.423 10.047-1.618 13.079-1.105.472-1.416.814-1.814 2-3-6.145-7.036-24.268-6.804-22.728 5.999 1.125 9.351 12.233 6.838 15.976 13.221 3.437 5.861-6.312 5.608-9.243 4.382-2.035-.852-3.928-1.848-6.005-2.602m85-25.471c-22.821 5.239-14.082 40.547 9 34.938 21.66-5.264 13.117-40.015-9-34.938m211 0c-23.203 5.355-14.04 40.502 9 34.938 22.165-5.352 13.455-40.12-9-34.938M830 724c-4.646 2.054-8.527 5.925-13.999 4.424-9.36-2.568-11.001-14.926-3.788-20.771 7.36-5.964 16.397 4.965 20.787-3.653-6.329-3.313-12.776-6.402-20-3.891-12.805 4.449-15.737 21.595-5.895 30.666 6.499 5.99 27.366 6.05 22.895-6.775z" style="fill:#2fa67e;stroke:none"/><path d="M188 700c7.409 3.109 18.975 1 27 1-7.409-3.109-18.975-1-27-1z" style="fill:#0e344d;stroke:none"/><path d="M226 700v35h7v-13c6.755 1.09 8.2 7.693 13.289 11.397 2.311 1.681 4.991 1.571 7.711 1.603-2.321-5.208-6.278-9.699-10-14 7.523-3.388 11.876-14.323 2.895-19.312C241.118 698.479 232.385 700 226 700z" style="fill:#2fa67e;stroke:none"/><path d="M275 700c2.052.874 3.747.953 6 1-2.052-.874-3.747-.953-6-1z" style="fill:#0e344d;stroke:none"/><path d="M281 700c-2.053.68-4.689 1.05-6.302 2.6-2.577 2.477-3.776 7.16-5.095 10.4-2.962 7.278-6.085 14.556-8.603 22h7l2-8c4.082 0 9.984-1.075 13.775.603 2.597 1.15 2.988 4.004 4.922 5.794 1.767 1.637 4.06 1.53 6.303 1.603-2.637-11.126-7.612-25.492-14-35m26 0v35h6c0-8.212.911-16.974-1-25 4.324 5.611 8.454 11.375 12.765 17 3.045 3.972 5.08 7.198 10.235 8v-35h-6v22c-5.109-7.488-12.11-21.672-22-22m79 0v35h6v-12c4.867-.04 10.682-.159 14.786-3.147 5.474-3.986 5.437-13.071.081-17.15-5.515-4.2-14.378-2.703-20.867-2.703m83 0v35h6v-14c7.569 1.221 8.52 9.351 14.464 12.972 2.2 1.341 5.072 1.019 7.536 1.028-2.861-4.974-6.652-9.342-10-14 6.589-3.456 12.293-14.222 2.956-18.691-5.705-2.73-14.688-1.517-20.956-2.309z" style="fill:#2fa67e;stroke:none"/><path d="M472 700c4.618 1.938 10.957 1.363 16 2-4.484-3.063-10.749-2-16-2z" style="fill:#0e344d;stroke:none"/><path d="m486 700 1 1-1-1m18 0v6h11v29h6v-29h11v-6h-28m32 35c6.556-.215 5.703-3.967 10.394-6.972 2.133-1.367 5.189-1.064 7.605-1.023 7.78.13 8.243 7.741 16.001 7.995-1.675-9.425-6.92-19.152-10.604-27.999-1.308-3.14-3.084-7.424-7.303-6.624-3.766.713-4.88 5.595-6.093 8.623-3.398 8.483-7.889 17.111-10 26z" style="fill:#2fa67e;stroke:none"/><path d="M576 700v5h10c-2.89-1.213-5.874-.998-9-1v-3h25v3h-10c3.432 1.44 7.3 1 11 1v-5h-27z" style="fill:#0e344d;stroke:none"/><path d="M613 700v35h6v-35h-6m68 0v35h6v-24c5.837 7.361 12.878 23.231 23 24v-35h-6v22c-6.56-7.144-12.39-21.653-23-22m59 0v35h21v-6h-14v-29h-7m32 0v35h21v-6h-15v-29h-6m-584 1v5h10v29h7v-29h10v-5h-27m389 0v3h9v31h6v-29h11c-3.432-1.44-7.3-1-11-1 3.35-.99 6.514-.998 10-1v-3h-25z" style="fill:#2fa67e;stroke:none"/><path d="M233 705v11c2.865-.002 6.237.391 8.941-.742 4.034-1.69 4.922-6.623.911-8.94-2.873-1.66-6.665-1.309-9.852-1.318m159 0v12c3.111-.009 6.95.388 9.721-1.318 3.475-2.138 3.258-6.615.127-8.94-2.788-2.07-6.573-1.733-9.848-1.742m43.004.742c-13.793 5.32-5.838 28.597 8.953 22.249 12.374-5.312 4.879-27.584-8.953-22.249M475 705v11c3.154 0 6.966.505 9.941-.742 4.053-1.699 4.676-6.445.831-8.801-3.117-1.91-7.278-1.455-10.772-1.457m171.004.742c-13.813 5.329-5.756 28.667 8.956 22.4 13.236-5.639 5.291-27.896-8.956-22.4M278 707c-1.895 4.913-4.105 9.797-5 15h11c-1.386-5.076-3.081-10.603-6-15m274 0c-1.195 5.164-3.096 10.063-5 15h12c-1.335-4.669-3.066-12.046-7-15z" style="fill:#f7f7f8;stroke:none"/></svg>